# xmcd CD database file
#
# Track frame offsets:
#	150
#	19220
#	50019
#	78981
#	114585
#	133953
#	150056
#	170271
#	197518
#	209200
#	222965
#	242362
#	259494
#	275813
#	300720
#
# Disc length: 4374 seconds
#
# Revision: 0
# Processed by: cddbd v1.5.1PL0 Copyright (c) Steve Scherf et al.
# Submitted via: CDex 1.51
#
DISCID=da11140f
DTITLE=Various Artist - Saturday Night At The Hothouse
DYEAR=1900
DGENRE=Blues
TTITLE0=Helen Watson - I Want More
TTITLE1=Mighty 45s - Can't Blame You
TTITLE2=Sally Barker - Elephants
TTITLE3=Pete Boss& The Bluehearts - Cold Sun
TTITLE4=Clive Gregson - You Never Came back
TTITLE5=Kent Duchaine - Blues So Bad
TTITLE6=Chris While and Julie Mathews - Blue Moon On the Rise
TTITLE7=John Pearson - Death Dream Blues
TTITLE8=Chris Leslie and Beryl Marriott - No Sleep For The Wicked
TTITLE9=Michael Roach - Left Handed Blues
TTITLE10=Rad Segrt -  Week In her Eyes
TTITLE11=Ottis and The Elevators - Sensitive Kind
TTITLE12=Dick Ellis - Iced Lightning
TTITLE13=The Cock and Bull Band - Branle du Pinouin
TTITLE14=Show Of Hands - The Blue Cockade
EXTD=
EXTT0=
EXTT1=
EXTT2=
EXTT3=
EXTT4=
EXTT5=
EXTT6=
EXTT7=
EXTT8=
EXTT9=
EXTT10=
EXTT11=
EXTT12=
EXTT13=
EXTT14=
PLAYORDER=
